<svg xmlns="http://www.w3.org/2000/svg" style="display:none">
  <defs>
    <symbol id="i-bag" viewBox="0 0 24 24" fill="none" stroke="currentColor" stroke-width="2" stroke-linecap="round" stroke-linejoin="round"><path d="M5 8h14l-1.2 11.2a2 2 0 0 1-2 1.8H8.2a2 2 0 0 1-2-1.8L5 8Z"/><path d="M9 10V6.5a3 3 0 0 1 6 0V10"/></symbol>
    <symbol id="i-plus" viewBox="0 0 24 24" fill="none" stroke="currentColor" stroke-width="2.6" stroke-linecap="round"><path d="M12 5v14M5 12h14"/></symbol>
    <symbol id="i-minus" viewBox="0 0 24 24" fill="none" stroke="currentColor" stroke-width="2.6" stroke-linecap="round"><path d="M5 12h14"/></symbol>
    <symbol id="i-close" viewBox="0 0 24 24" fill="none" stroke="currentColor" stroke-width="2.4" stroke-linecap="round"><path d="M6 6l12 12M18 6 6 18"/></symbol>
    <symbol id="i-arrow" viewBox="0 0 24 24" fill="none" stroke="currentColor" stroke-width="2.4" stroke-linecap="round" stroke-linejoin="round"><path d="M4 12h15M13 6l6 6-6 6"/></symbol>
    <symbol id="i-arrow-left" viewBox="0 0 24 24" fill="none" stroke="currentColor" stroke-width="2.4" stroke-linecap="round" stroke-linejoin="round"><path d="M20 12H5M11 6l-6 6 6 6"/></symbol>
    <symbol id="i-chevron" viewBox="0 0 24 24" fill="none" stroke="currentColor" stroke-width="2.4" stroke-linecap="round" stroke-linejoin="round"><path d="m6 9 6 6 6-6"/></symbol>
    <symbol id="i-clock" viewBox="0 0 24 24" fill="none" stroke="currentColor" stroke-width="2" stroke-linecap="round" stroke-linejoin="round"><circle cx="12" cy="12" r="9"/><path d="M12 7v5l3 2"/></symbol>
    <symbol id="i-pin" viewBox="0 0 24 24" fill="none" stroke="currentColor" stroke-width="2" stroke-linecap="round" stroke-linejoin="round"><path d="M12 21s7-6.2 7-12a7 7 0 0 0-14 0c0 5.8 7 12 7 12Z"/><circle cx="12" cy="9" r="2.5"/></symbol>
    <symbol id="i-phone" viewBox="0 0 24 24" fill="none" stroke="currentColor" stroke-width="2" stroke-linecap="round" stroke-linejoin="round"><path d="M5 4h4l2 5-2.5 1.5a11 11 0 0 0 5 5L15 13l5 2v4a2 2 0 0 1-2 2A16 16 0 0 1 3 6a2 2 0 0 1 2-2"/></symbol>
    <symbol id="i-scooter" viewBox="0 0 24 24" fill="none" stroke="currentColor" stroke-width="2" stroke-linecap="round" stroke-linejoin="round"><circle cx="6" cy="17" r="2.5"/><circle cx="18" cy="17" r="2.5"/><path d="M8.5 17h7M16 6h2l2 8M4 13h7l2-5h3"/><path d="M4 9h5v4H4z"/></symbol>
    <symbol id="i-store" viewBox="0 0 24 24" fill="none" stroke="currentColor" stroke-width="2" stroke-linecap="round" stroke-linejoin="round"><path d="M4 10v10h16V10M3 10l1.5-6h15L21 10a3 3 0 0 1-6 0 3 3 0 0 1-6 0 3 3 0 0 1-6 0Z"/><path d="M10 20v-5h4v5"/></symbol>
    <symbol id="i-check" viewBox="0 0 24 24" fill="none" stroke="currentColor" stroke-width="2.8" stroke-linecap="round" stroke-linejoin="round"><path d="m5 12.5 4.5 4.5L19 7.5"/></symbol>
    <symbol id="i-check-circle" viewBox="0 0 24 24" fill="none" stroke="currentColor" stroke-width="2.2" stroke-linecap="round" stroke-linejoin="round"><circle cx="12" cy="12" r="9.5"/><path d="m7.5 12.5 3 3 6-6.5"/></symbol>
    <symbol id="i-cash" viewBox="0 0 24 24" fill="none" stroke="currentColor" stroke-width="2" stroke-linecap="round" stroke-linejoin="round"><rect x="2.5" y="6" width="19" height="12" rx="2"/><circle cx="12" cy="12" r="2.5"/><path d="M6 9.5v5M18 9.5v5"/></symbol>
    <symbol id="i-edit" viewBox="0 0 24 24" fill="none" stroke="currentColor" stroke-width="2" stroke-linecap="round" stroke-linejoin="round"><path d="M4 20h4L19 9l-4-4L4 16v4Z"/><path d="m13.5 6.5 4 4"/></symbol>
    <symbol id="i-trash" viewBox="0 0 24 24" fill="none" stroke="currentColor" stroke-width="2" stroke-linecap="round" stroke-linejoin="round"><path d="M4 7h16M9 7V4h6v3M6 7l1 13h10l1-13"/></symbol>
    <symbol id="i-flame" viewBox="0 0 24 24" fill="currentColor"><path d="M12.6 2.5c.5 3-1.6 4.6-2.9 6.1-1.3 1.5-2.2 3-2.2 4.9 0 1 .3 1.9.8 2.6-.9-.3-1.9-1.1-2.4-2.3C4.7 15.2 4 16.9 4 18a8 8 0 0 0 16 0c0-4.4-3-6.2-4.3-8.4-.9-1.6-1.2-4.2-3.1-7.1Zm-.3 18.3a3.1 3.1 0 0 1-3.1-3.1c0-2.2 2.4-3.1 3-5.2 1.9 1.9 3.2 3.2 3.2 5.2a3.1 3.1 0 0 1-3.1 3.1Z"/></symbol>
    <symbol id="i-leaf" viewBox="0 0 24 24" fill="none" stroke="currentColor" stroke-width="2" stroke-linecap="round" stroke-linejoin="round"><path d="M5 19c0-9 5-14 15-15-1 10-6 15-15 15Z"/><path d="M5 19 13 11"/></symbol>
    <symbol id="i-star" viewBox="0 0 24 24" fill="currentColor"><path d="m12 2.8 2.7 6 6.5.6-4.9 4.3 1.5 6.4L12 16.8l-5.8 3.3 1.5-6.4-4.9-4.3 6.5-.6L12 2.8Z"/></symbol>
    <symbol id="i-spark" viewBox="0 0 24 24" fill="currentColor"><path d="M12 1.5c.6 5.6 4.9 9.9 10.5 10.5-5.6.6-9.9 4.9-10.5 10.5C11.4 16.9 7.1 12.6 1.5 12 7.1 11.4 11.4 7.1 12 1.5Z"/></symbol>
    <symbol id="i-instagram" viewBox="0 0 24 24" fill="none" stroke="currentColor" stroke-width="2" stroke-linecap="round" stroke-linejoin="round"><rect x="3" y="3" width="18" height="18" rx="5"/><circle cx="12" cy="12" r="4"/><circle cx="17.5" cy="6.5" r="0.6" fill="currentColor"/></symbol>
    <symbol id="i-copy" viewBox="0 0 24 24" fill="none" stroke="currentColor" stroke-width="2" stroke-linecap="round" stroke-linejoin="round"><rect x="8" y="8" width="12" height="12" rx="2"/><path d="M16 8V5a1 1 0 0 0-1-1H5a1 1 0 0 0-1 1v10a1 1 0 0 0 1 1h3"/></symbol>
    <symbol id="i-print" viewBox="0 0 24 24" fill="none" stroke="currentColor" stroke-width="2" stroke-linecap="round" stroke-linejoin="round"><path d="M7 9V3h10v6M7 17H4v-7a1 1 0 0 1 1-1h14a1 1 0 0 1 1 1v7h-3"/><path d="M7 14h10v7H7z"/></symbol>
    <symbol id="i-share" viewBox="0 0 24 24" fill="none" stroke="currentColor" stroke-width="2" stroke-linecap="round" stroke-linejoin="round"><path d="M12 15V3M8 7l4-4 4 4"/><path d="M5 12v7a2 2 0 0 0 2 2h10a2 2 0 0 0 2-2v-7"/></symbol>
    <symbol id="i-info" viewBox="0 0 24 24" fill="none" stroke="currentColor" stroke-width="2" stroke-linecap="round" stroke-linejoin="round"><circle cx="12" cy="12" r="9"/><path d="M12 11v6M12 7.5v.5"/></symbol>
    <symbol id="i-alert" viewBox="0 0 24 24" fill="none" stroke="currentColor" stroke-width="2" stroke-linecap="round" stroke-linejoin="round"><path d="M12 3 2 20h20L12 3Z"/><path d="M12 10v4M12 17v.5"/></symbol>
    <symbol id="i-mail" viewBox="0 0 24 24" fill="none" stroke="currentColor" stroke-width="2" stroke-linecap="round" stroke-linejoin="round"><rect x="3" y="5" width="18" height="14" rx="2"/><path d="m4 7 8 6 8-6"/></symbol>
    <symbol id="i-refresh" viewBox="0 0 24 24" fill="none" stroke="currentColor" stroke-width="2" stroke-linecap="round" stroke-linejoin="round"><path d="M20 11a8 8 0 1 0-2.3 5.7"/><path d="M20 4v7h-7"/></symbol>
    <symbol id="i-bell" viewBox="0 0 24 24" fill="none" stroke="currentColor" stroke-width="2" stroke-linecap="round" stroke-linejoin="round"><path d="M6 16V11a6 6 0 0 1 12 0v5l2 2H4l2-2Z"/><path d="M10 20a2 2 0 0 0 4 0"/></symbol>
    <symbol id="i-bell-off" viewBox="0 0 24 24" fill="none" stroke="currentColor" stroke-width="2" stroke-linecap="round" stroke-linejoin="round"><path d="M6 16V11a6 6 0 0 1 9.5-4.9M18 11v5l2 2H8M10 20a2 2 0 0 0 4 0M3 3l18 18"/></symbol>
    <symbol id="i-pause" viewBox="0 0 24 24" fill="none" stroke="currentColor" stroke-width="2.4" stroke-linecap="round"><path d="M9 5v14M15 5v14"/></symbol>
    <symbol id="i-lock" viewBox="0 0 24 24" fill="none" stroke="currentColor" stroke-width="2" stroke-linecap="round" stroke-linejoin="round"><rect x="4.5" y="10.5" width="15" height="10" rx="2"/><path d="M8 10.5V7a4 4 0 0 1 8 0v3.5"/></symbol>
    <symbol id="i-map" viewBox="0 0 24 24" fill="none" stroke="currentColor" stroke-width="2" stroke-linecap="round" stroke-linejoin="round"><path d="M3 6l6-2 6 2 6-2v14l-6 2-6-2-6 2V6Z"/><path d="M9 4v14M15 6v14"/></symbol>
    <symbol id="i-note" viewBox="0 0 24 24" fill="none" stroke="currentColor" stroke-width="2" stroke-linecap="round" stroke-linejoin="round"><path d="M5 4h14v11l-5 5H5V4Z"/><path d="M14 20v-5h5M8 9h8M8 13h4"/></symbol>
    <symbol id="i-repeat" viewBox="0 0 24 24" fill="none" stroke="currentColor" stroke-width="2" stroke-linecap="round" stroke-linejoin="round"><path d="M17 3l3 3-3 3"/><path d="M4 12V9a3 3 0 0 1 3-3h13M7 21l-3-3 3-3"/><path d="M20 12v3a3 3 0 0 1-3 3H4"/></symbol>
    <symbol id="i-user" viewBox="0 0 24 24" fill="none" stroke="currentColor" stroke-width="2" stroke-linecap="round" stroke-linejoin="round"><circle cx="12" cy="8" r="4"/><path d="M4 21a8 8 0 0 1 16 0"/></symbol>
    <symbol id="i-sun" viewBox="0 0 24 24" fill="none" stroke="currentColor" stroke-width="2" stroke-linecap="round"><circle cx="12" cy="12" r="4"/><path d="M12 2v2M12 20v2M2 12h2M20 12h2M4.9 4.9l1.4 1.4M17.7 17.7l1.4 1.4M4.9 19.1l1.4-1.4M17.7 6.3l1.4-1.4"/></symbol>
    <symbol id="i-meander" viewBox="0 0 34 34" fill="none" stroke="currentColor" stroke-width="3.2" stroke-linecap="square"><path d="M3 31V3h28v28H9V9h16v16H15v-6h4"/></symbol>
  </defs>
</svg>
